<?xml version="1.0" encoding="UTF-8"?>
<svg width="200" height="60px" viewBox="0 0 219 60" version="1.1"
    xmlns="http://www.w3.org/2000/svg"
    xmlns:xlink="http://www.w3.org/1999/xlink">
    <!-- Generator: Sketch 61.2 (89653) - https://sketch.com -->
    <title>logo/full copy</title>
    <desc>Created with Sketch.</desc>
    <g id="Design" stroke="none" stroke-width="1" fill="none" fill-rule="evenodd">
        <g id="UI-library" transform="translate(-905.000000, -219.000000)">
            <g id="brand" transform="translate(70.000000, 84.000000)">
                <g id="full-logo" transform="translate(104.000000, 54.000000)">
                    <g id="3" transform="translate(684.000000, 54.000000)">
                        <g id="logo/full" transform="translate(47.000000, 27.000000)">
                            <g id="tempered-networks-logo">
                                <path d="M139.021729,18.5181864 C144.704949,18.5181864 147.528,23.0064915 147.528,28.5808983 C147.528,33.7210678 144.704949,38.2454746 139.311051,38.2454746 C136.994441,38.2454746 134.931559,37.2325932 133.700542,35.4219153 L133.628339,35.4219153 L133.628339,44.3268305 L128.488169,44.3268305 L128.488169,19.0246271 L133.375119,19.0246271 L133.375119,21.4139492 L133.447322,21.4139492 C134.677831,19.4588644 136.596814,18.5181864 139.021729,18.5181864 Z M189.548441,18.5179831 C195.448271,18.5179831 198.669966,23.1512034 198.669966,28.6895085 C198.669966,28.9788305 198.633356,29.6306949 198.633356,29.6306949 L185.131831,29.6306949 C185.276746,32.8523898 186.760983,34.3722203 189.692847,34.3722203 C191.647932,34.3722203 193.38539,33.2500169 193.783017,31.9473051 L198.307932,31.9473051 C196.932508,36.1823898 194.036237,38.2457797 189.548441,38.2457797 C183.611492,38.2457797 179.992169,34.1551017 179.992169,28.399678 C179.992169,22.7530678 183.901322,18.5179831 189.548441,18.5179831 Z M158.049356,18.5179831 C163.948678,18.5179831 167.170373,23.1512034 167.170373,28.6895085 C167.170373,28.9788305 167.134271,29.6306949 167.134271,29.6306949 L153.632746,29.6306949 C153.777661,32.8523898 155.261898,34.3722203 158.193763,34.3722203 C160.148339,34.3722203 161.885797,33.2500169 162.283932,31.9473051 L166.808339,31.9473051 C165.432915,36.1823898 162.537153,38.2457797 158.049356,38.2457797 C152.112407,38.2457797 148.492576,34.1551017 148.492576,28.399678 C148.492576,22.7530678 152.402237,18.5179831 158.049356,18.5179831 Z M88.0057119,18.5179831 C93.9055424,18.5179831 97.1272373,23.1512034 97.1272373,28.6895085 C97.1272373,28.9788305 97.0906271,29.6306949 97.0906271,29.6306949 L83.5891017,29.6306949 C83.7340169,32.8523898 85.2177458,34.3722203 88.1501186,34.3722203 C90.1052034,34.3722203 91.842661,33.2500169 92.2402881,31.9473051 L96.7652034,31.9473051 C95.3892712,36.1823898 92.4935085,38.2457797 88.0057119,38.2457797 C82.0687627,38.2457797 78.4494407,34.1551017 78.4494407,28.399678 C78.4494407,22.7530678 82.3585932,18.5179831 88.0057119,18.5179831 Z M218.809932,11.8937797 L218.809932,37.7390339 L213.923492,37.7390339 L213.923492,35.3497119 L213.851797,35.3497119 C212.729593,37.2681864 210.738407,38.2454746 208.168576,38.2454746 C202.593661,38.2454746 199.77061,33.5400508 199.77061,28.2188644 C199.77061,23.0425932 202.666373,18.5181864 208.059763,18.5181864 C210.303661,18.5181864 212.475864,19.4954746 213.598068,21.3051356 L213.670271,21.3051356 L213.670271,11.8937797 L218.809932,11.8937797 Z M179.202814,18.5180847 C179.709763,18.5180847 180.071797,18.6263898 180.325017,18.6991017 L180.325017,23.4772373 C179.818068,23.3684237 179.202814,23.2962203 178.478746,23.2962203 C174.75061,23.2962203 173.411288,25.8665593 173.411288,29.3048644 L173.411288,37.7389322 L168.271119,37.7389322 L168.271119,19.0245254 L173.158068,19.0245254 L173.158068,22.4999492 L173.230271,22.4999492 C174.207559,20.1467288 176.632983,18.5180847 179.202814,18.5180847 Z M120.064678,18.5181356 C124.698407,18.5181356 126.870102,21.0518644 126.870102,25.1786441 L126.870102,37.7389831 L121.730441,37.7389831 L121.730441,26.9161017 C121.730441,24.4545763 121.367898,22.5722034 118.580441,22.5722034 C116.156034,22.5722034 115.142136,24.2735593 115.142136,27.2776271 L115.142136,37.7389831 L110.001966,37.7389831 L110.001966,26.6989831 C110.001966,24.2735593 109.639932,22.5722034 106.889593,22.5722034 C105.694678,22.5722034 103.414678,23.4045763 103.414678,26.8433898 L103.414678,37.7389831 L98.274,37.7389831 L98.274,19.0245763 L103.124339,19.0245763 L103.124339,21.5583051 L103.197051,21.5583051 C104.645186,19.4954237 106.599763,18.5181356 108.915864,18.5181356 C111.703322,18.5181356 113.513492,19.6764407 114.381966,21.6310169 C115.75739,19.640339 117.784678,18.5181356 120.064678,18.5181356 Z M84.0085424,11.8940339 L84.0085424,16.671661 L76.2624407,16.671661 L76.2624407,37.7387797 L70.5792203,37.7387797 L70.5792203,16.671661 L62.8331186,16.671661 L62.8331186,11.8940339 L84.0085424,11.8940339 Z M209.399085,22.3917458 C206.46722,22.3917458 204.91078,24.7439492 204.91078,28.3637797 C204.91078,31.3322542 206.286203,34.3724237 209.435186,34.3724237 C212.367559,34.3724237 213.851797,32.0919153 213.851797,28.327678 C213.851797,24.9249661 212.548068,22.3917458 209.399085,22.3917458 Z M137.863424,22.3917458 C135.039864,22.3917458 133.447322,24.6356441 133.447322,28.4364915 C133.447322,31.8025932 134.822746,34.3724237 137.935627,34.3724237 C141.12122,34.3724237 142.388339,31.7664915 142.388339,28.4364915 C142.388339,25.5768305 141.302237,22.3917458 137.863424,22.3917458 Z M189.366915,22.3915424 C186.869288,22.3915424 185.348949,23.9118814 185.131831,26.3728983 L193.493695,26.3728983 C192.986746,23.5498475 191.756237,22.3915424 189.366915,22.3915424 Z M157.867831,22.3915424 C155.370203,22.3915424 153.849864,23.9118814 153.632746,26.3728983 L161.99461,26.3728983 C161.487661,23.5498475 160.257153,22.3915424 157.867831,22.3915424 Z M87.8241864,22.3915424 C85.3265593,22.3915424 83.8062203,23.9118814 83.5891017,26.3728983 L91.9509661,26.3728983 C91.4440169,23.5498475 90.2135085,22.3915424 87.8241864,22.3915424 Z" id="tempered" fill="#3D3D40"></path>
                                <path d="M37.1923729,34.7997458 L25.6972881,46.2948305 L25.6972881,18.9948305 L37.1923729,18.9948305 L37.1923729,34.7997458 Z M18.5964407,46.2948305 L7.10084746,34.7997458 L7.10084746,18.9948305 L18.5964407,18.9948305 L18.5964407,46.2948305 Z M44.2932203,11.8939831 L44.2932203,37.7407627 L22.1466102,59.8873729 L0,37.7407627 L0,11.8939831 L44.2932203,11.8939831 Z M44.2933729,-7.22585833e-15 L44.2933729,7.10084746 L0.000661016949,7.10084746 L0.000661016949,-7.22585833e-15 L44.2933729,-7.22585833e-15 Z" id="shield" fill="#FFFFFF"></path>
                            </g>
                        </g>
                    </g>
                </g>
            </g>
        </g>
    </g>
</svg>