<svg xmlns="http://www.w3.org/2000/svg"
    xmlns:xlink="http://www.w3.org/1999/xlink" version="1.1" x="0px" y="0px" viewBox="0 0 512 640" style="enable-background:new 0 0 512 512;" xml:space="preserve">
    <path d="M67,398.1c16.2,0,30.6,8.7,38.4,22.1h112.2c3.9-6.6,9.4-12.2,16-16v-58.8H73.1c-3.3,0-6-2.7-6-6v-73.5c0-3.3,2.7-6,6-6h55.2  v-31.9H73.1c-3.3,0-6-2.7-6-6v-73.5c0-3.3,2.7-6,6-6h55.2v-31.9H73.1c-3.3,0-6-2.7-6-6V31c0-3.3,2.7-6,6-6h365.8c3.3,0,6,2.7,6,6  v73.5c0,3.3-2.7,6-6,6h-55.2v31.9h55.2c3.3,0,6,2.7,6,6v73.5c0,3.3-2.7,6-6,6h-55.2v31.9h55.2c3.3,0,6,2.7,6,6v73.5c0,3.3-2.7,6-6,6  H278.4v58.8c6.6,3.9,12.2,9.4,16,16h112.2c14.7-25.1,49.2-29.7,69.8-9c17.4,17.3,17.4,45.5,0,62.8c-20.6,20.7-55.2,16-69.8-9H294.4  c-17.1,29.4-59.7,29.4-76.8,0H105.4c-14.7,25.1-49.2,29.7-69.8,9c-17.3-17.3-17.3-45.5,0-62.8C43.6,403.1,54.7,398.1,67,398.1  L67,398.1z M110.2,432.2c1.6,6.8,1.6,14,0,20.7h102.6c-1.6-6.8-1.6-13.9,0-20.7H110.2z M89.9,419.6c-12.7-12.7-33.2-12.7-45.9,0  s-12.7,33.2,0,45.9c15.9,15.9,42.8,11.1,52.3-9.2C102.2,443.9,99.5,429.2,89.9,419.6L89.9,419.6z M401.8,452.9  c-1.6-6.8-1.6-13.9,0-20.7H299.2c1.6,6.8,1.6,14,0,20.7H401.8z M468,419.6c-12.7-12.7-33.2-12.7-45.9,0c-12.8,12.7-12.6,33.3,0,45.9  c12.7,12.6,33.2,12.6,45.9,0C480.6,452.8,480.6,432.3,468,419.6L468,419.6z M256,398.1c3.6,0,7.1,0.4,10.4,1.2v-54h-20.7v54  C248.9,398.5,252.4,398.1,256,398.1L256,398.1z M278.9,419.6c-12.7-12.7-33.3-12.6-45.9,0c-12.8,12.7-12.6,33.3,0,45.9  c15.9,15.9,42.8,11.1,52.3-9.2C291.2,443.9,288.5,429.2,278.9,419.6L278.9,419.6z M113.1,297.5c0-3.3,2.7-6,6-6s6,2.7,6,6v10.2  c0,3.3-2.7,6-6,6s-6-2.7-6-6V297.5z M201.5,297.5c0-3.3,2.7-6,6-6c3.3,0,6,2.7,6,6v10.2c0,3.3-2.7,6-6,6c-3.3,0-6-2.7-6-6V297.5z   M157.3,297.5c0-3.3,2.7-6,6-6c3.3,0,6,2.7,6,6v10.2c0,3.3-2.7,6-6,6c-3.3,0-6-2.7-6-6V297.5z M113.1,180.1c0-3.3,2.7-6,6-6  s6,2.7,6,6v10.2c0,3.3-2.7,6-6,6s-6-2.7-6-6V180.1z M201.5,180.1c0-3.3,2.7-6,6-6c3.3,0,6,2.7,6,6v10.2c0,3.3-2.7,6-6,6  c-3.3,0-6-2.7-6-6V180.1z M157.3,180.1c0-3.3,2.7-6,6-6c3.3,0,6,2.7,6,6v10.2c0,3.3-2.7,6-6,6c-3.3,0-6-2.7-6-6V180.1z M113.1,62.6  c0-3.3,2.7-6,6-6s6,2.7,6,6v10.2c0,3.3-2.7,6-6,6s-6-2.7-6-6V62.6z M201.5,62.6c0-3.3,2.7-6,6-6c3.3,0,6,2.7,6,6v10.2  c0,3.3-2.7,6-6,6c-3.3,0-6-2.7-6-6V62.6z M157.3,62.6c0-3.3,2.7-6,6-6c3.3,0,6,2.7,6,6v10.2c0,3.3-2.7,6-6,6c-3.3,0-6-2.7-6-6V62.6z   M288.5,308.6c-3.3,0-6-2.7-6-6c0-3.3,2.7-6,6-6h89.2c3.3,0,6,2.7,6,6c0,3.3-2.7,6-6,6H288.5z M288.5,191.1c-3.3,0-6-2.7-6-6  c0-3.3,2.7-6,6-6h89.2c3.3,0,6,2.7,6,6c0,3.3-2.7,6-6,6H288.5z M288.5,73.7c-3.3,0-6-2.7-6-6c0-3.3,2.7-6,6-6h89.2c3.3,0,6,2.7,6,6  c0,3.3-2.7,6-6,6H288.5z M371.7,259.8v-31.9H140.3v31.9H371.7z M377.7,271.8H79.1v61.5h353.8v-61.5H377.7z M140.3,142.4h231.4v-31.9  H140.3V142.4z M134.3,98.5h298.6V37H79.1v61.5H134.3z M432.9,154.4H79.1v61.5h353.8V154.4z"/>
    <text x="0" y="230" fill="#000000" font-size="5" font-weight="normal" font-family="'Helvetica Neue', Helvetica, Arial-Unicode, Arial, Sans-serif">Created by afian roc</text>
    <text x="0" y="200" fill="#000000" font-size="5" font-weight="normal" font-family="'Helvetica Neue', Helvetica, Arial-Unicode, Arial, Sans-serif">from the Noun Project</text>
</svg>