<svg xmlns="http://www.w3.org/2000/svg" version="1.1" viewBox="-5.0 -10.0 110.0 135.0">
    <path d="m23.703 25.223c0 1.0312-1.5625 1.0312-1.5625 0v-5.1562c0-1.9766 1.6172-3.5938 3.5938-3.5938h20.68c1.0312 0 1.0312 1.5625 0 1.5625h-20.68c-1.1133 0-2.0312 0.91406-2.0312 2.0312zm41.539 21.496c2.5938 0.30469 2.9688 3.832 0.65625 4.7812-0.37109 0.14844-0.78906 0.21875-1.2266 0.16406-2.6406-0.3125-5.2422-0.91406-7.7891-1.6992-2.5-0.77344-2.2109-4.3125 0.21875-4.8203 0.38672-0.078125 0.8125-0.066406 1.2461 0.066407 2.2617 0.70703 4.543 1.2344 6.8945 1.5078zm0-22.648c2.5938 0.30469 2.9688 3.8359 0.65625 4.7812-0.37109 0.15625-0.78906 0.21875-1.2266 0.16406-2.6406-0.3125-5.2422-0.91016-7.7891-1.6953-2.5-0.78125-2.2109-4.3203 0.21875-4.8203 0.38672-0.085938 0.8125-0.066406 1.2461 0.066406 2.2617 0.70312 4.543 1.2344 6.8945 1.5039zm0.28125 1.7266c-0.125-0.09375-0.28125-0.15625-0.46094-0.17969-2.4062-0.27734-4.8555-0.84766-7.1758-1.5625-1.168-0.36719-1.7227 1.4141-0.54688 1.7773 2.4219 0.75 4.9844 1.3398 7.5078 1.6328 0.99219 0.12109 1.375-1.1523 0.67578-1.668zm-0.28125 9.9062c2.5938 0.30469 2.9688 3.8359 0.65625 4.7812-0.37109 0.14844-0.78906 0.21875-1.2266 0.16406-2.6406-0.3125-5.2422-0.91016-7.7891-1.6992-2.5-0.77344-2.2109-4.3125 0.21875-4.8164 0.38672-0.085937 0.8125-0.070312 1.2461 0.0625 2.2617 0.70313 4.543 1.2344 6.8945 1.5078zm0.28125 1.7266c-0.125-0.09375-0.28125-0.15625-0.46094-0.17969-2.4062-0.27734-4.8555-0.84766-7.1758-1.5664-1.168-0.35938-1.7227 1.418-0.54688 1.7773 2.4219 0.75391 4.9844 1.3438 7.5078 1.6406 0.99219 0.11719 1.375-1.1562 0.67578-1.6719zm0 11.02c-0.125-0.09375-0.28125-0.15625-0.46094-0.17969-2.4062-0.28125-4.8555-0.84766-7.1758-1.5664-1.168-0.35938-1.7227 1.4141-0.54688 1.7773 2.4219 0.75 4.9844 1.3398 7.5078 1.6406 0.99219 0.10938 1.375-1.1602 0.67578-1.6719zm-24.883-7.3945h-9.8984c-1.3438-0.007813-2.3594-0.50391-2.957-1.7734-0.35156-0.76953-0.71094-1.5508-1.0625-2.3281-0.46875-1.0352-1.3281-1.8906-2.5703-1.8906l-9.2461 0.007812c-0.85547 0-1.5625 0.70313-1.5625 1.5664v19.43c0 1.8555 1.5156 3.3711 3.3711 3.3711h23.93c1.8594 0 3.375-1.5156 3.375-3.3711v-11.637c0.003907-1.8555-1.5156-3.375-3.3789-3.375zm-9.8672-1.5586h9.8711c2.7188 0 4.9375 2.2148 4.9375 4.9336v11.637c0 2.7188-2.2148 4.9336-4.9375 4.9336h-23.93c-2.7188 0-4.9375-2.2148-4.9375-4.9336v-19.43c0-1.7266 1.4062-3.1289 3.1289-3.1289h9.25c1.8906 0 3.2656 1.2344 3.9844 2.8008l1.0547 2.3125c0.36719 0.75781 0.84375 0.875 1.5781 0.875zm-1.4805 5.9258c0.3125-0.98047 1.793-0.50781 1.4844 0.46875l-2.7109 8.5156c-0.3125 0.98047-1.793 0.50781-1.4844-0.46484zm3.0352 1.5938c-0.80859-0.625 0.14453-1.8594 0.95312-1.2344l4.5508 3.5156c0.41406 0.32031 0.39062 0.9375-0.015625 1.2461l-4.5352 3.5039c-0.80859 0.625-1.7578-0.60938-0.95312-1.2344l3.7539-2.8984zm-8.25-1.2344c0.80859-0.625 1.7578 0.60938 0.95312 1.2344l-3.75 2.8984 3.75 2.8984c0.80859 0.625-0.14453 1.8594-0.95312 1.2344-0.54297-0.42188-4.5391-3.4609-4.6875-3.6562-0.25781-0.34375-0.19922-0.82812 0.14062-1.0938zm27.398-28.625v8.5234c0 1.625 2.1719 3.1719 5.6797 4.3672 8.1484 2.7734 21.348 2.7734 29.5 0 3.5078-1.1953 5.6797-2.7461 5.6797-4.3672v-8.5234c-1.168 1.0742-2.9453 2.0234-5.1797 2.7852-8.4844 2.8906-22.016 2.8906-30.492 0-2.2422-0.76172-4.0156-1.7109-5.1875-2.7852zm-32.953 68.289h4.7422l0.003906-7.4375h-10.988c-3.3984 0-6.1797-2.7812-6.1797-6.1797l0.003907-37.465c0-3.3984 2.7812-6.1797 6.1797-6.1797h37.637l-0.003906-13.961c0-3.2656 4.1562-5.0938 6.7422-5.9766 8.4844-2.8906 22.016-2.8906 30.492 0 2.5859 0.88281 6.7422 2.707 6.7422 5.9766v33.898c0 2.3633-2.5742 4.4219-6.7422 5.8438-3.5234 1.1953-7.918 1.8984-12.461 2.1016v15.758c0 3.3984-2.7812 6.1797-6.1797 6.1797h-10.992v7.4375h4.7422c3.7266 0 5.6758 4.5469 2.9922 7.2305-0.76562 0.76953-1.8281 1.2461-2.9922 1.2461h-43.738c-3.7188 0-5.6758-4.5508-2.9922-7.2344 0.76953-0.76562 1.832-1.2383 2.9922-1.2383zm31.391-55.699h-37.633c-2.5352 0-4.6172 2.082-4.6172 4.6172v32.562h65.469v-10.801c-5.9023 0.10938-11.914-0.60156-16.469-2.1562-4.1641-1.4219-6.7422-3.4805-6.7422-5.8438l-0.003906-18.379zm36.742-20.02c-8.1484-2.7734-21.348-2.7734-29.5 0-7.5625 2.5742-7.5625 6.1641 0 8.7344 8.1484 2.7734 21.348 2.7734 29.5 0 7.5625-2.5742 7.5625-6.1602 0-8.7344zm5.6797 19.016c-1.168 1.0742-2.9453 2.0234-5.1797 2.7852-8.4844 2.8906-22.016 2.8906-30.492 0-2.2344-0.76562-4.0156-1.7109-5.1797-2.7852v8.1562c0 1.625 2.1719 3.1797 5.6797 4.3672 8.1484 2.7812 21.348 2.7812 29.5 0 3.5078-1.1875 5.6797-2.7461 5.6797-4.3672l-0.003906-8.1562zm-40.859 11.219v8.1602c0 1.625 2.1719 3.1719 5.6797 4.3672 8.1484 2.7734 21.348 2.7734 29.5 0 3.5078-1.1953 5.6797-2.7461 5.6797-4.3672v-8.1602c-1.168 1.0781-2.9453 2.0234-5.1797 2.7852-8.4844 2.8906-22.016 2.8906-30.492 0-2.2422-0.75781-4.0156-1.707-5.1875-2.7852zm21.656 28.523h-65.473v3.3438c0 2.5352 2.082 4.6172 4.6172 4.6172h22.492c0.63672-4.6094 6.3359-6.5273 9.6328-3.2344 0.85156 0.85547 1.4375 1.9844 1.6094 3.2344h22.492c2.5352 0 4.6172-2.082 4.6172-4.6172l0.007812-3.3438zm-27.113 9.5234c-0.63672 4.6094-6.3359 6.5352-9.6328 3.2344-0.85156-0.85156-1.4336-1.9766-1.6094-3.2344h-9.9453v7.4375h31.129v-7.4375zm16.25 8.9961h-43.742c-2.3477 0-3.582 2.8672-1.8906 4.5625 0.48828 0.48828 1.1562 0.78906 1.8906 0.78906h43.742c2.3477 0 3.582-2.8672 1.8906-4.5625-0.48828-0.48828-1.1602-0.78906-1.8906-0.78906zm-18.965-12.684c-1.6016-1.5938-4.2188-1.5938-5.8203 0-1.5938 1.5938-1.5938 4.2188 0 5.8125 1.6016 1.6016 4.2188 1.6016 5.8203 0 1.5938-1.5938 1.5938-4.2188 0-5.8125zm40.297-15.695c0-1.0312 1.5664-1.0312 1.5664 0v20.391c0 1.9766-1.6172 3.5938-3.6016 3.5938h-20.508c-1.0312 0-1.0312-1.5625 0-1.5625h20.508c1.1172 0 2.0312-0.92188 2.0312-2.0312v-20.391z"/>
    <text x="0.0" y="117.5" font-size="5" font-weight="normal" font-family="Arbeit Regular, Helvetica, Arial-Unicode, Arial, Sans-serif" fill="#000000">Created by hervvv</text>
    <text x="0.0" y="122.5" font-size="5" font-weight="normal" font-family="Arbeit Regular, Helvetica, Arial-Unicode, Arial, Sans-serif" fill="#000000">from Noun Project</text>
</svg>