<svg xmlns="http://www.w3.org/2000/svg" version="1.1" viewBox="-5.0 -10.0 110.0 135.0">
    <g fill-rule="evenodd">
        <path d="m28.125 35.938v10.938c0 0.86328 0.70312 1.5625 1.5625 1.5625 0.86328 0 1.5625-0.69922 1.5625-1.5625v-10.938c0-0.86328-0.69922-1.5625-1.5625-1.5625-0.85938 0-1.5625 0.69922-1.5625 1.5625z"/>
        <path d="m70.312 37.5c0-2.5859-2.1016-4.6875-4.6875-4.6875h-21.875c-2.5859 0-4.6875 2.1016-4.6875 4.6875s2.1016 4.6875 4.6875 4.6875h21.875c2.5859 0 4.6875-2.1016 4.6875-4.6875zm-3.125 0c0 0.86328-0.69922 1.5625-1.5625 1.5625h-21.875c-0.86328 0-1.5625-0.69922-1.5625-1.5625s0.69922-1.5625 1.5625-1.5625h21.875c0.86328 0 1.5625 0.69922 1.5625 1.5625z"/>
        <path d="m40.625 90.625h28.125c0.86328 0 1.5625-0.69922 1.5625-1.5625s-0.69922-1.5625-1.5625-1.5625h-28.125c-0.86328 0-1.5625 0.69922-1.5625 1.5625s0.69922 1.5625 1.5625 1.5625z"/>
        <path d="m61.086 55.855c-2.8828 1.5977-4.8359 4.6758-4.8359 8.2031v6.2539c0 0.86328 0.69922 1.5625 1.5625 1.5625h15.625c0.86328 0 1.5625-0.69922 1.5625-1.5625v-6.25c0-3.5312-1.9531-6.6055-4.8359-8.2031 1.0625-1.1211 1.7109-2.6328 1.7109-4.2969 0-3.4492-2.8008-6.25-6.25-6.25s-6.25 2.8008-6.25 6.25c0 1.6641 0.64844 3.1719 1.7109 4.293zm4.5391 1.957h-0.003906c3.4531 0 6.2539 2.7969 6.2539 6.25v4.6875h-12.5v-4.6914c0-3.4492 2.7969-6.2461 6.2461-6.2461zm0-9.375c1.7266 0 3.125 1.3984 3.125 3.125s-1.3984 3.125-3.125 3.125-3.125-1.3984-3.125-3.125 1.3984-3.125 3.125-3.125z"/>
        <path d="m34.375 53.125c0 2.082-3.125 2.082-3.125 0s3.125-2.082 3.125 0"/>
        <path d="m34.375 71.875c0 2.082-3.125 2.082-3.125 0s3.125-2.082 3.125 0"/>
        <path d="m40.625 53.125c0 2.082-3.125 2.082-3.125 0s3.125-2.082 3.125 0"/>
        <path d="m40.625 71.875c0 2.082-3.125 2.082-3.125 0s3.125-2.082 3.125 0"/>
        <path d="m46.875 53.125c0 2.082-3.125 2.082-3.125 0s3.125-2.082 3.125 0"/>
        <path d="m46.875 71.875c0 2.082-3.125 2.082-3.125 0s3.125-2.082 3.125 0"/>
        <path d="m21.875 53.125c0 2.082-3.125 2.082-3.125 0s3.125-2.082 3.125 0"/>
        <path d="m21.875 71.875c0 2.082-3.125 2.082-3.125 0s3.125-2.082 3.125 0"/>
        <path d="m28.125 53.125c0 2.082-3.125 2.082-3.125 0s3.125-2.082 3.125 0"/>
        <path d="m28.125 71.875c0 2.082-3.125 2.082-3.125 0s3.125-2.082 3.125 0"/>
        <path d="m28.125 79.688v12.5c0 1.2422 0.49219 2.4375 1.375 3.3125 0.875 0.88281 2.0703 1.375 3.3125 1.375h43.75c2.5898 0 4.6875-2.0977 4.6875-4.6875v-52.617c3.6953-1.7578 6.25-5.5234 6.25-9.8828 0-6.0352-4.9023-10.938-10.938-10.938h-2.6055c-2.1758-5.4883-7.5391-9.375-13.801-9.375-2.5742 0-4.9961 0.65625-7.1094 1.8125-2.4609-4.7852-7.4531-8.0625-13.203-8.0625-8.1914 0-14.844 6.6523-14.844 14.844 0 0.26172 0.007812 0.52344 0.019531 0.78125h-1.582c-6.0352 0-10.938 4.9023-10.938 10.938s4.9023 10.938 10.938 10.938h4.6875v4.6875h-10.938c-1.2422 0-2.4375 0.49219-3.3125 1.375-0.88281 0.875-1.375 2.0703-1.375 3.3125v6.25c0 1.2422 0.49219 2.4375 1.375 3.3125 0.875 0.88281 2.0703 1.375 3.3125 1.375h10.938v3.125h-10.938c-1.2422 0-2.4375 0.49219-3.3125 1.375-0.88281 0.875-1.375 2.0703-1.375 3.3125v6.25c0 1.2422 0.49219 2.4375 1.375 3.3125 0.875 0.88281 2.0703 1.375 3.3125 1.375zm50 12.5v-60.938c0-0.41406-0.16406-0.8125-0.45703-1.1055s-0.69141-0.45703-1.1055-0.45703h-43.75c-0.86328 0-1.5625 0.69922-1.5625 1.5625v14.062h17.188c1.2422 0 2.4375 0.49219 3.3125 1.375 0.88281 0.875 1.375 2.0703 1.375 3.3125v6.25c0 1.2422-0.49219 2.4375-1.375 3.3125-0.875 0.88281-2.0703 1.375-3.3125 1.375h-17.188v3.125h17.188c1.2422 0 2.4375 0.49219 3.3125 1.375 0.88281 0.875 1.375 2.0703 1.375 3.3125v6.25c0 1.2422-0.49219 2.4375-1.375 3.3125-0.875 0.88281-2.0703 1.375-3.3125 1.375h-17.188v12.5c0 0.41406 0.16406 0.8125 0.45703 1.1055s0.69141 0.45703 1.1055 0.45703h43.75c0.86328 0 1.5625-0.69922 1.5625-1.5625zm-28.125-23.438v6.25c0 0.41406-0.16406 0.8125-0.45703 1.1055s-0.69141 0.45703-1.1055 0.45703h-31.25c-0.41406 0-0.8125-0.16406-1.1055-0.45703s-0.45703-0.69141-0.45703-1.1055v-6.25c0-0.41406 0.16406-0.8125 0.45703-1.1055s0.69141-0.45703 1.1055-0.45703h31.25c0.41406 0 0.8125 0.16406 1.1055 0.45703s0.45703 0.69141 0.45703 1.1055zm0-18.75v6.25c0 0.41406-0.16406 0.8125-0.45703 1.1055s-0.69141 0.45703-1.1055 0.45703h-31.25c-0.41406 0-0.8125-0.16406-1.1055-0.45703s-0.45703-0.69141-0.45703-1.1055v-6.25c0-0.41406 0.16406-0.8125 0.45703-1.1055s0.69141-0.45703 1.1055-0.45703h31.25c0.41406 0 0.8125 0.16406 1.1055 0.45703s0.45703 0.69141 0.45703 1.1055zm31.25-14.062c1.8984-1.4258 3.125-3.6953 3.125-6.25 0-4.3125-3.5-7.8125-7.8125-7.8125h-3.7109c-0.68359 0-1.2891-0.44531-1.4922-1.1016-1.4727-4.7891-5.9336-8.2734-11.203-8.2734-2.5742 0-4.957 0.83203-6.8906 2.2422-0.39844 0.28906-0.90625 0.375-1.3789 0.23047-0.46875-0.14453-0.84375-0.50391-1.0117-0.96484-1.625-4.5195-5.9531-7.7578-11.031-7.7578-6.4688 0-11.719 5.25-11.719 11.719 0 0.70703 0.0625 1.3984 0.18359 2.0703 0.082031 0.45313-0.042969 0.92188-0.33984 1.2773-0.29688 0.35547-0.73828 0.55859-1.1992 0.55859h-3.332c-4.3125 0-7.8125 3.5-7.8125 7.8125s3.5 7.8125 7.8125 7.8125h4.6875v-6.25c0-2.5898 2.0977-4.6875 4.6875-4.6875h43.75c1.2422 0 2.4375 0.49219 3.3125 1.375 0.88281 0.875 1.375 2.0703 1.375 3.3125z"/>
    </g>
    <text x="0.0" y="117.5" font-size="5" font-weight="normal" font-family="Arbeit Regular, Helvetica, Arial-Unicode, Arial, Sans-serif" fill="#000000">Created by AmruID</text>
    <text x="0.0" y="122.5" font-size="5" font-weight="normal" font-family="Arbeit Regular, Helvetica, Arial-Unicode, Arial, Sans-serif" fill="#000000">from Noun Project</text>
</svg>